<svg width="21" height="11" viewBox="0 0 21 11" fill="none" xmlns="http://www.w3.org/2000/svg">
<mask id="path-1-inside-1_45_40" fill="white">
<path d="M0.813407 0.911185C0.569835 0.911185 0.371388 1.10874 0.381875 1.35209C0.43216 2.51892 0.681729 3.66901 1.12041 4.75014C1.61426 5.96724 2.33811 7.07313 3.25063 8.00466C4.16315 8.93619 5.24646 9.67511 6.43872 10.1793C7.63098 10.6834 8.90884 10.9429 10.1993 10.9429C11.4898 10.9429 12.7677 10.6834 13.9599 10.1793C15.1522 9.67511 16.2355 8.93619 17.148 8.00466C18.0606 7.07313 18.7844 5.96725 19.2783 4.75015C19.7169 3.66901 19.9665 2.51892 20.0168 1.35209C20.0273 1.10874 19.8288 0.911186 19.5853 0.911186C19.3417 0.911186 19.1453 1.10875 19.1338 1.35205C19.0842 2.40059 18.8577 3.43368 18.4633 4.40557C18.0138 5.51342 17.3549 6.52004 16.5243 7.36796C15.6937 8.21587 14.7076 8.88848 13.6224 9.34737C12.5372 9.80625 11.374 10.0424 10.1993 10.0424C9.02467 10.0424 7.86152 9.80625 6.77627 9.34736C5.69102 8.88848 4.70495 8.21587 3.87433 7.36796C3.04372 6.52004 2.38485 5.51342 1.93532 4.40557C1.54097 3.43368 1.31451 2.40059 1.26486 1.35205C1.25334 1.10875 1.05698 0.911185 0.813407 0.911185Z"/>
</mask>
<path d="M0.813407 0.911185C0.569835 0.911185 0.371388 1.10874 0.381875 1.35209C0.43216 2.51892 0.681729 3.66901 1.12041 4.75014C1.61426 5.96724 2.33811 7.07313 3.25063 8.00466C4.16315 8.93619 5.24646 9.67511 6.43872 10.1793C7.63098 10.6834 8.90884 10.9429 10.1993 10.9429C11.4898 10.9429 12.7677 10.6834 13.9599 10.1793C15.1522 9.67511 16.2355 8.93619 17.148 8.00466C18.0606 7.07313 18.7844 5.96725 19.2783 4.75015C19.7169 3.66901 19.9665 2.51892 20.0168 1.35209C20.0273 1.10874 19.8288 0.911186 19.5853 0.911186C19.3417 0.911186 19.1453 1.10875 19.1338 1.35205C19.0842 2.40059 18.8577 3.43368 18.4633 4.40557C18.0138 5.51342 17.3549 6.52004 16.5243 7.36796C15.6937 8.21587 14.7076 8.88848 13.6224 9.34737C12.5372 9.80625 11.374 10.0424 10.1993 10.0424C9.02467 10.0424 7.86152 9.80625 6.77627 9.34736C5.69102 8.88848 4.70495 8.21587 3.87433 7.36796C3.04372 6.52004 2.38485 5.51342 1.93532 4.40557C1.54097 3.43368 1.31451 2.40059 1.26486 1.35205C1.25334 1.10875 1.05698 0.911185 0.813407 0.911185Z" stroke="#686868" stroke-width="1.32733" mask="url(#path-1-inside-1_45_40)"/>
</svg>
