<svg width="114" height="114" viewBox="0 0 114 114" fill="none" xmlns="http://www.w3.org/2000/svg">
<path d="M11.4789 90.6767C19.9697 102.286 32.5666 110.221 46.7038 112.867C60.841 115.513 75.4552 112.671 87.5699 104.919C99.6845 97.1664 108.388 85.0876 111.909 71.1424C115.429 57.1972 113.501 42.4344 106.518 29.861C99.534 17.2876 88.02 7.84914 74.3208 3.46812C60.6215 -0.9129 45.7675 0.0929997 32.7839 6.28094C19.8004 12.4689 9.66406 23.3734 4.43935 36.7736C-0.78537 50.1738 -0.705435 65.0617 4.66288 78.405L11.0858 75.8209C6.37497 64.1119 6.30482 51.0475 10.8896 39.2886C15.4744 27.5296 24.3693 17.9607 35.7626 12.5306C47.1558 7.1006 60.1906 6.21791 72.2119 10.0623C84.2333 13.9068 94.337 22.1892 100.465 33.2226C106.594 44.2561 108.285 57.2106 105.196 69.4479C102.107 81.6851 94.4691 92.2844 83.8383 99.0872C73.2074 105.89 60.3832 108.384 47.9775 106.062C35.5718 103.74 24.5178 96.7767 17.067 86.5896L11.4789 90.6767Z" fill="url(#paint0_linear_26_241)"/>
<defs>
<linearGradient id="paint0_linear_26_241" x1="119.132" y1="101.858" x2="12.3987" y2="22.7151" gradientUnits="userSpaceOnUse">
<stop stop-color="#5771F9"/>
<stop offset="0.901042" stop-color="#5771F9" stop-opacity="0"/>
</linearGradient>
</defs>
</svg>
