<svg width="146" height="97" viewBox="0 0 146 97" fill="none" xmlns="http://www.w3.org/2000/svg">
<path d="M141.857 96.914C145.47 86.3934 146.627 75.185 145.239 64.1481C143.85 53.1111 139.953 42.5386 133.847 33.2407C127.74 23.9429 119.586 16.1666 110.009 10.5078C100.432 4.84906 89.686 1.45808 78.5956 0.594763C67.5053 -0.268549 56.3644 1.41873 46.027 5.52728C35.6897 9.63583 26.4301 16.0566 18.9581 24.2974C11.4862 32.5383 6.00011 42.3804 2.92043 53.0696C-0.159242 63.7587 -0.750771 75.011 1.19118 85.9641L24.7197 81.7926C23.4146 74.4313 23.8122 66.8689 25.8819 59.6851C27.9517 52.5012 31.6387 45.8865 36.6604 40.3481C41.6821 34.8097 47.9052 30.4945 54.8527 27.7332C61.8002 24.972 69.2876 23.838 76.7412 24.4182C84.1947 24.9984 91.4165 27.2774 97.8529 31.0805C104.289 34.8836 109.77 40.1098 113.874 46.3587C117.978 52.6075 120.597 59.713 121.53 67.1306C122.463 74.5483 121.686 82.0811 119.257 89.1517L141.857 96.914Z" fill="white" fill-opacity="0.41"/>
</svg>
