<svg width="88" height="89" viewBox="0 0 88 89" fill="none" xmlns="http://www.w3.org/2000/svg">
<path d="M50.1362 0.750195C41.1893 -0.524309 32.067 0.991429 24.0129 5.09076C15.9588 9.1901 9.36496 15.6736 5.13021 23.6573C0.895465 31.641 -0.774085 40.7364 0.349167 49.7036C1.47242 58.6708 5.33382 67.0734 11.4069 73.7659C17.4801 80.4584 25.4694 85.1152 34.2857 87.1013C43.1021 89.0874 52.3164 88.3062 60.6726 84.8643C69.0287 81.4224 76.1201 75.4872 80.9799 67.8678C85.8397 60.2484 88.2315 51.3157 87.8292 42.2874L73.4369 42.9288C73.7073 48.9964 72.0999 54.9999 68.8337 60.1207C65.5676 65.2414 60.8017 69.2303 55.1857 71.5435C49.5698 73.8568 43.377 74.3818 37.4518 73.047C31.5266 71.7121 26.1572 68.5825 22.0756 64.0846C17.994 59.5868 15.3989 53.9396 14.644 47.913C13.8891 41.8864 15.0112 35.7736 17.8572 30.408C20.7033 25.0423 25.1348 20.685 30.5477 17.9299C35.9607 15.1749 42.0915 14.1562 48.1045 15.0128L50.1362 0.750195Z" fill="white" fill-opacity="0.41"/>
</svg>
