<svg width="258" height="360" viewBox="0 0 258 360" fill="none" xmlns="http://www.w3.org/2000/svg">
<path d="M216.152 42.0218C187.781 18.409 152.823 4.1103 116.036 1.07113C79.2488 -1.96807 42.4186 6.39984 10.5563 25.0363C-21.3061 43.6728 -46.6533 71.6729 -62.0367 105.227C-77.4201 138.781 -82.0927 176.26 -75.4188 212.564C-68.7448 248.868 -51.0484 282.234 -24.7373 308.124C1.57382 334.013 35.222 351.167 71.6292 357.254C108.036 363.34 145.435 358.062 178.736 342.138C212.037 326.215 239.623 300.418 257.742 268.259L101.246 180.087L216.152 42.0218Z" fill="url(#paint0_linear_27_1026)"/>
<defs>
<linearGradient id="paint0_linear_27_1026" x1="-36.8186" y1="65.1807" x2="239.311" y2="294.993" gradientUnits="userSpaceOnUse">
<stop stop-color="#A082F4"/>
<stop offset="0.507583" stop-color="#64B1F8" stop-opacity="0.546875"/>
<stop offset="1" stop-color="#FB35FF" stop-opacity="0"/>
</linearGradient>
</defs>
</svg>
