<svg width="260" height="360" viewBox="0 0 260 360" fill="none" xmlns="http://www.w3.org/2000/svg">
<path d="M218.053 42.0219C189.681 18.4092 154.723 4.11043 117.936 1.07125C81.1492 -1.96795 44.3189 6.39996 12.4566 25.0364C-19.4057 43.6729 -44.7529 71.673 -60.1363 105.227C-75.5197 138.781 -80.1923 176.26 -73.5184 212.564C-66.8444 248.868 -49.148 282.235 -22.8369 308.124C3.47421 334.013 37.1224 351.168 73.5296 357.254C109.937 363.34 147.335 358.062 180.636 342.138C213.937 326.215 241.524 300.418 259.643 268.259L103.147 180.087L218.053 42.0219Z" fill="url(#paint0_linear_26_365)"/>
<defs>
<linearGradient id="paint0_linear_26_365" x1="-34.9182" y1="65.1808" x2="241.212" y2="294.993" gradientUnits="userSpaceOnUse">
<stop stop-color="#A082F4"/>
<stop offset="0.507583" stop-color="#64B1F8" stop-opacity="0.546875"/>
<stop offset="1" stop-color="#FB35FF" stop-opacity="0"/>
</linearGradient>
</defs>
</svg>
