<svg width="114" height="114" viewBox="0 0 114 114" fill="none" xmlns="http://www.w3.org/2000/svg">
<path d="M11.3134 90.6767C19.8042 102.286 32.4011 110.221 46.5383 112.867C60.6755 115.513 75.2897 112.671 87.4043 104.919C99.519 97.1664 108.223 85.0876 111.743 71.1424C115.264 57.1972 113.336 42.4344 106.352 29.861C99.3684 17.2876 87.8545 7.84914 74.1552 3.46812C60.456 -0.9129 45.6019 0.0929997 32.6184 6.28094C19.6349 12.4689 9.49853 23.3734 4.27382 36.7736C-0.950897 50.1738 -0.870962 65.0617 4.49735 78.405L10.9202 75.8209C6.20944 64.1119 6.1393 51.0475 10.7241 39.2886C15.3089 27.5296 24.2037 17.9607 35.597 12.5306C46.9903 7.1006 60.0251 6.21791 72.0464 10.0623C84.0677 13.9068 94.1715 22.1892 100.3 33.2226C106.428 44.2561 108.12 57.2106 105.031 69.4479C101.941 81.6851 94.3036 92.2844 83.6728 99.0872C73.0419 105.89 60.2176 108.384 47.812 106.062C35.4063 103.74 24.3523 96.7767 16.9014 86.5896L11.3134 90.6767Z" fill="url(#paint0_linear_26_120)"/>
<defs>
<linearGradient id="paint0_linear_26_120" x1="118.966" y1="101.858" x2="12.2332" y2="22.7151" gradientUnits="userSpaceOnUse">
<stop stop-color="#5771F9"/>
<stop offset="0.901042" stop-color="#5771F9" stop-opacity="0"/>
</linearGradient>
</defs>
</svg>
