<svg width="204" height="204" viewBox="0 0 204 204" fill="none" xmlns="http://www.w3.org/2000/svg">
<mask id="path-1-inside-1_26_240" fill="white">
<path d="M0.490571 100.423C0.0815588 122.007 6.5565 143.162 18.977 160.819C31.3974 178.477 49.1181 191.721 69.5707 198.632C90.0233 205.542 112.145 205.76 132.73 199.255C153.315 192.749 171.294 179.857 184.06 162.448C196.826 145.038 203.717 124.016 203.734 102.428C203.751 80.8391 196.893 59.806 184.154 42.3768C171.414 24.9476 153.456 12.0278 132.881 5.48986C112.307 -1.04805 90.1845 -0.864387 69.7211 6.01427L70.9873 9.78096C90.6505 3.17127 111.908 2.99478 131.678 9.27706C151.448 15.5593 168.704 27.974 180.945 44.7217C193.187 61.4694 199.777 81.6801 199.76 102.425C199.744 123.169 193.123 143.369 180.855 160.098C168.588 176.826 151.313 189.214 131.533 195.466C111.752 201.717 90.4956 201.507 70.8427 194.867C51.1899 188.226 34.1621 175.5 22.2272 158.533C10.2924 141.566 4.07064 121.239 4.46368 100.498L0.490571 100.423Z"/>
</mask>
<path d="M0.490571 100.423C0.0815588 122.007 6.5565 143.162 18.977 160.819C31.3974 178.477 49.1181 191.721 69.5707 198.632C90.0233 205.542 112.145 205.76 132.73 199.255C153.315 192.749 171.294 179.857 184.06 162.448C196.826 145.038 203.717 124.016 203.734 102.428C203.751 80.8391 196.893 59.806 184.154 42.3768C171.414 24.9476 153.456 12.0278 132.881 5.48986C112.307 -1.04805 90.1845 -0.864387 69.7211 6.01427L70.9873 9.78096C90.6505 3.17127 111.908 2.99478 131.678 9.27706C151.448 15.5593 168.704 27.974 180.945 44.7217C193.187 61.4694 199.777 81.6801 199.76 102.425C199.744 123.169 193.123 143.369 180.855 160.098C168.588 176.826 151.313 189.214 131.533 195.466C111.752 201.717 90.4956 201.507 70.8427 194.867C51.1899 188.226 34.1621 175.5 22.2272 158.533C10.2924 141.566 4.07064 121.239 4.46368 100.498L0.490571 100.423Z" stroke="white" mask="url(#path-1-inside-1_26_240)"/>
</svg>
