<svg width="162" height="168" viewBox="0 0 162 168" fill="none" xmlns="http://www.w3.org/2000/svg">
<g filter="url(#filter0_bd_26_121)">
<path d="M157.174 111.483C151.159 125.63 141.176 137.733 128.43 146.327C115.685 154.922 100.723 159.641 85.3529 159.915C69.9827 160.188 54.8624 156.004 41.8194 147.868C28.7764 139.732 18.3691 127.992 11.8554 114.068C5.34169 100.143 3.00042 84.6304 5.11456 69.4038C7.2287 54.1773 13.7078 39.8891 23.7686 28.266C33.8295 16.6429 47.0415 8.18268 61.8077 3.90775C76.5739 -0.367176 92.2623 -0.273755 106.977 4.17672L95.6768 41.5362C88.1794 39.2685 80.1856 39.2209 72.6617 41.3991C65.1378 43.5773 58.4058 47.8881 53.2795 53.8105C48.1531 59.7328 44.8518 67.0132 43.7746 74.7716C42.6974 82.5301 43.8903 90.4344 47.2093 97.5294C50.5282 104.624 55.8311 110.606 62.477 114.752C69.1228 118.897 76.8272 121.029 84.6588 120.89C92.4904 120.751 100.114 118.346 106.608 113.967C113.103 109.587 118.189 103.421 121.254 96.2124L157.174 111.483Z" fill="url(#paint0_radial_26_121)" shape-rendering="crispEdges"/>
<path d="M157.174 111.483C151.159 125.63 141.176 137.733 128.43 146.327C115.685 154.922 100.723 159.641 85.3529 159.915C69.9827 160.188 54.8624 156.004 41.8194 147.868C28.7764 139.732 18.3691 127.992 11.8554 114.068C5.34169 100.143 3.00042 84.6304 5.11456 69.4038C7.2287 54.1773 13.7078 39.8891 23.7686 28.266C33.8295 16.6429 47.0415 8.18268 61.8077 3.90775C76.5739 -0.367176 92.2623 -0.273755 106.977 4.17672L95.6768 41.5362C88.1794 39.2685 80.1856 39.2209 72.6617 41.3991C65.1378 43.5773 58.4058 47.8881 53.2795 53.8105C48.1531 59.7328 44.8518 67.0132 43.7746 74.7716C42.6974 82.5301 43.8903 90.4344 47.2093 97.5294C50.5282 104.624 55.8311 110.606 62.477 114.752C69.1228 118.897 76.8272 121.029 84.6588 120.89C92.4904 120.751 100.114 118.346 106.608 113.967C113.103 109.587 118.189 103.421 121.254 96.2124L157.174 111.483Z" fill="url(#paint1_linear_26_121)" fill-opacity="0.2" shape-rendering="crispEdges"/>
</g>
<defs>
<filter id="filter0_bd_26_121" x="-5.6416" y="-9.2312" width="172.815" height="179.159" filterUnits="userSpaceOnUse" color-interpolation-filters="sRGB">
<feFlood flood-opacity="0" result="BackgroundImageFix"/>
<feGaussianBlur in="BackgroundImage" stdDeviation="5"/>
<feComposite in2="SourceAlpha" operator="in" result="effect1_backgroundBlur_26_121"/>
<feColorMatrix in="SourceAlpha" type="matrix" values="0 0 0 0 0 0 0 0 0 0 0 0 0 0 0 0 0 0 127 0" result="hardAlpha"/>
<feOffset dy="4"/>
<feGaussianBlur stdDeviation="2"/>
<feComposite in2="hardAlpha" operator="out"/>
<feColorMatrix type="matrix" values="0 0 0 0 0.920833 0 0 0 0 1 0 0 0 0 0.983242 0 0 0 0.76 0"/>
<feBlend mode="normal" in2="effect1_backgroundBlur_26_121" result="effect2_dropShadow_26_121"/>
<feBlend mode="normal" in="SourceGraphic" in2="effect2_dropShadow_26_121" result="shape"/>
</filter>
<radialGradient id="paint0_radial_26_121" cx="0" cy="0" r="1" gradientUnits="userSpaceOnUse" gradientTransform="translate(49.265 53.3936) rotate(49.7998) scale(126.915)">
<stop offset="0.152184" stop-color="#5771F9" stop-opacity="0.41"/>
<stop offset="0.46875" stop-color="#5CFFDD" stop-opacity="0.26"/>
<stop offset="1" stop-color="white"/>
</radialGradient>
<linearGradient id="paint1_linear_26_121" x1="83.9377" y1="0.768799" x2="83.9377" y2="159.927" gradientUnits="userSpaceOnUse">
<stop stop-color="white"/>
<stop offset="1" stop-color="white" stop-opacity="0"/>
</linearGradient>
</defs>
</svg>
