<svg width="204" height="204" viewBox="0 0 204 204" fill="none" xmlns="http://www.w3.org/2000/svg">
<mask id="path-1-inside-1_26_119" fill="white">
<path d="M0.325044 100.423C-0.0839686 122.007 6.39097 143.162 18.8114 160.819C31.2319 178.477 48.9526 191.721 69.4052 198.632C89.8578 205.542 111.98 205.76 132.565 199.255C153.149 192.749 171.128 179.857 183.894 162.448C196.661 145.038 203.552 124.016 203.569 102.428C203.585 80.8391 196.727 59.806 183.988 42.3768C171.249 24.9476 153.291 12.0278 132.716 5.48986C112.141 -1.04805 90.0189 -0.864387 69.5556 6.01427L70.8217 9.78096C90.485 3.17127 111.742 2.99478 131.512 9.27706C151.283 15.5593 168.539 27.974 180.78 44.7217C193.021 61.4694 199.611 81.6801 199.595 102.425C199.579 123.169 192.957 143.369 180.69 160.098C168.423 176.826 151.147 189.214 131.367 195.466C111.587 201.717 90.3301 201.507 70.6772 194.867C51.0243 188.226 33.9965 175.5 22.0617 158.533C10.1269 141.566 3.90512 121.239 4.29815 100.498L0.325044 100.423Z"/>
</mask>
<path d="M0.325044 100.423C-0.0839686 122.007 6.39097 143.162 18.8114 160.819C31.2319 178.477 48.9526 191.721 69.4052 198.632C89.8578 205.542 111.98 205.76 132.565 199.255C153.149 192.749 171.128 179.857 183.894 162.448C196.661 145.038 203.552 124.016 203.569 102.428C203.585 80.8391 196.727 59.806 183.988 42.3768C171.249 24.9476 153.291 12.0278 132.716 5.48986C112.141 -1.04805 90.0189 -0.864387 69.5556 6.01427L70.8217 9.78096C90.485 3.17127 111.742 2.99478 131.512 9.27706C151.283 15.5593 168.539 27.974 180.78 44.7217C193.021 61.4694 199.611 81.6801 199.595 102.425C199.579 123.169 192.957 143.369 180.69 160.098C168.423 176.826 151.147 189.214 131.367 195.466C111.587 201.717 90.3301 201.507 70.6772 194.867C51.0243 188.226 33.9965 175.5 22.0617 158.533C10.1269 141.566 3.90512 121.239 4.29815 100.498L0.325044 100.423Z" stroke="white" mask="url(#path-1-inside-1_26_119)"/>
</svg>
