<svg width="222" height="149" viewBox="0 0 222 149" fill="none" xmlns="http://www.w3.org/2000/svg">
<path d="M218.925 148.613C225.007 121.146 221.384 92.4206 208.671 67.325C195.958 42.2294 174.941 22.3146 149.198 10.9701C123.455 -0.374385 94.5763 -2.44754 67.4767 5.10348C40.3771 12.6545 16.7315 29.3631 0.564363 52.3854L9.30649 58.5245C24.0542 37.5234 45.6237 22.2819 70.344 15.3938C95.0643 8.50577 121.408 10.3969 144.891 20.7454C168.373 31.0938 187.545 49.2601 199.141 72.1523C210.738 95.0446 214.044 121.248 208.495 146.303L218.925 148.613Z" fill="url(#paint0_linear_26_118)"/>
<defs>
<linearGradient id="paint0_linear_26_118" x1="136.576" y1="-30.018" x2="100.134" y2="72.0991" gradientUnits="userSpaceOnUse">
<stop stop-color="#5771F9"/>
<stop offset="1" stop-color="#5771F9" stop-opacity="0"/>
</linearGradient>
</defs>
</svg>
