<svg width="259" height="360" viewBox="0 0 259 360" fill="none" xmlns="http://www.w3.org/2000/svg">
<path d="M217.153 42.0219C188.781 18.4092 153.823 4.11043 117.036 1.07125C80.2493 -1.96795 43.419 6.39996 11.5567 25.0364C-20.3056 43.6729 -45.6528 71.673 -61.0362 105.227C-76.4196 138.781 -81.0922 176.26 -74.4183 212.564C-67.7443 248.868 -50.0479 282.235 -23.7368 308.124C2.57431 334.013 36.2225 351.168 72.6297 357.254C109.037 363.34 146.435 358.062 179.736 342.138C213.037 326.215 240.624 300.418 258.743 268.259L102.247 180.087L217.153 42.0219Z" fill="url(#paint0_linear_9_586)"/>
<defs>
<linearGradient id="paint0_linear_9_586" x1="-35.8181" y1="65.1808" x2="240.312" y2="294.993" gradientUnits="userSpaceOnUse">
<stop stop-color="#A082F4"/>
<stop offset="0.507583" stop-color="#64B1F8" stop-opacity="0.546875"/>
<stop offset="1" stop-color="#FB35FF" stop-opacity="0"/>
</linearGradient>
</defs>
</svg>
