<svg width="260" height="224" viewBox="0 0 260 224" fill="none" xmlns="http://www.w3.org/2000/svg">
<mask id="path-1-inside-1_26_238" fill="white">
<path d="M254.663 166.169C261.019 144.127 261.403 120.792 255.775 98.5538C250.148 76.3151 238.71 55.9717 222.635 39.6066C206.56 23.2416 186.424 11.4429 164.289 5.41883C142.155 -0.605276 118.817 -0.638373 96.6651 5.32293C74.5135 11.2842 54.3442 23.0257 38.2225 39.3451C22.1008 55.6645 10.606 75.9754 4.91516 98.198C-0.775692 120.421 -0.458138 143.757 5.83531 165.816C12.1288 187.876 24.172 207.866 40.7317 223.741L43.998 220.334C28.0421 205.038 16.438 185.776 10.3741 164.521C4.31015 143.266 4.00418 120.781 9.48751 99.3689C14.9708 77.9567 26.0465 58.3865 41.5802 42.6622C57.114 26.9379 76.5478 15.6246 97.8916 9.88066C119.235 4.13675 141.722 4.16864 163.05 9.97306C184.377 15.7775 203.779 27.1459 219.268 42.9142C234.757 58.6824 245.777 78.284 251.2 99.7117C256.622 121.139 256.253 143.623 250.128 164.861L254.663 166.169Z"/>
</mask>
<path d="M254.663 166.169C261.019 144.127 261.403 120.792 255.775 98.5538C250.148 76.3151 238.71 55.9717 222.635 39.6066C206.56 23.2416 186.424 11.4429 164.289 5.41883C142.155 -0.605276 118.817 -0.638373 96.6651 5.32293C74.5135 11.2842 54.3442 23.0257 38.2225 39.3451C22.1008 55.6645 10.606 75.9754 4.91516 98.198C-0.775692 120.421 -0.458138 143.757 5.83531 165.816C12.1288 187.876 24.172 207.866 40.7317 223.741L43.998 220.334C28.0421 205.038 16.438 185.776 10.3741 164.521C4.31015 143.266 4.00418 120.781 9.48751 99.3689C14.9708 77.9567 26.0465 58.3865 41.5802 42.6622C57.114 26.9379 76.5478 15.6246 97.8916 9.88066C119.235 4.13675 141.722 4.16864 163.05 9.97306C184.377 15.7775 203.779 27.1459 219.268 42.9142C234.757 58.6824 245.777 78.284 251.2 99.7117C256.622 121.139 256.253 143.623 250.128 164.861L254.663 166.169Z" stroke="white" mask="url(#path-1-inside-1_26_238)"/>
</svg>
