<svg width="260" height="224" viewBox="0 0 260 224" fill="none" xmlns="http://www.w3.org/2000/svg">
<mask id="path-1-inside-1_26_117" fill="white">
<path d="M254.498 166.169C260.854 144.127 261.238 120.792 255.61 98.5538C249.982 76.3151 238.545 55.9717 222.47 39.6066C206.394 23.2416 186.258 11.4429 164.124 5.41883C141.989 -0.605276 118.651 -0.638373 96.4995 5.32293C74.3479 11.2842 54.1786 23.0257 38.057 39.3451C21.9353 55.6645 10.4405 75.9754 4.74964 98.198C-0.941219 120.421 -0.623666 143.757 5.66978 165.816C11.9632 187.876 24.0064 207.866 40.5662 223.741L43.8324 220.334C27.8766 205.038 16.2725 185.776 10.2086 164.521C4.14462 143.266 3.83865 120.781 9.32198 99.3689C14.8053 77.9567 25.8809 58.3865 41.4147 42.6622C56.9485 26.9379 76.3823 15.6246 97.7261 9.88066C119.07 4.13675 141.557 4.16864 162.884 9.97306C184.212 15.7775 203.613 27.1459 219.102 42.9142C234.592 58.6824 245.612 78.284 251.034 99.7117C256.457 121.139 256.087 143.623 249.963 164.861L254.498 166.169Z"/>
</mask>
<path d="M254.498 166.169C260.854 144.127 261.238 120.792 255.61 98.5538C249.982 76.3151 238.545 55.9717 222.47 39.6066C206.394 23.2416 186.258 11.4429 164.124 5.41883C141.989 -0.605276 118.651 -0.638373 96.4995 5.32293C74.3479 11.2842 54.1786 23.0257 38.057 39.3451C21.9353 55.6645 10.4405 75.9754 4.74964 98.198C-0.941219 120.421 -0.623666 143.757 5.66978 165.816C11.9632 187.876 24.0064 207.866 40.5662 223.741L43.8324 220.334C27.8766 205.038 16.2725 185.776 10.2086 164.521C4.14462 143.266 3.83865 120.781 9.32198 99.3689C14.8053 77.9567 25.8809 58.3865 41.4147 42.6622C56.9485 26.9379 76.3823 15.6246 97.7261 9.88066C119.07 4.13675 141.557 4.16864 162.884 9.97306C184.212 15.7775 203.613 27.1459 219.102 42.9142C234.592 58.6824 245.612 78.284 251.034 99.7117C256.457 121.139 256.087 143.623 249.963 164.861L254.498 166.169Z" stroke="white" mask="url(#path-1-inside-1_26_117)"/>
</svg>
