<svg width="222" height="149" viewBox="0 0 222 149" fill="none" xmlns="http://www.w3.org/2000/svg">
<path d="M219.091 148.613C225.173 121.146 221.549 92.4206 208.836 67.325C196.123 42.2294 175.107 22.3146 149.364 10.9701C123.621 -0.374385 94.7418 -2.44754 67.6422 5.10348C40.5426 12.6545 16.897 29.3631 0.729891 52.3854L9.47201 58.5245C24.2197 37.5234 45.7892 22.2819 70.5095 15.3938C95.2298 8.50577 121.573 10.3969 145.056 20.7454C168.539 31.0938 187.71 49.2601 199.307 72.1523C210.904 95.0446 214.209 121.248 208.661 146.303L219.091 148.613Z" fill="url(#paint0_linear_26_239)"/>
<defs>
<linearGradient id="paint0_linear_26_239" x1="136.741" y1="-30.018" x2="100.3" y2="72.0991" gradientUnits="userSpaceOnUse">
<stop stop-color="#5771F9"/>
<stop offset="1" stop-color="#5771F9" stop-opacity="0"/>
</linearGradient>
</defs>
</svg>
