<svg width="162" height="168" viewBox="0 0 162 168" fill="none" xmlns="http://www.w3.org/2000/svg">
<g filter="url(#filter0_bd_26_242)">
<path d="M157.339 111.483C151.325 125.63 141.341 137.733 128.596 146.327C115.851 154.922 100.889 159.641 85.5184 159.915C70.1483 160.188 55.0279 156.004 41.9849 147.868C28.9419 139.732 18.5346 127.992 12.0209 114.068C5.50722 100.143 3.16594 84.6304 5.28008 69.4038C7.39422 54.1773 13.8733 39.8891 23.9341 28.266C33.995 16.6429 47.207 8.18268 61.9732 3.90775C76.7394 -0.367176 92.4278 -0.273755 107.142 4.17672L95.8423 41.5362C88.3449 39.2685 80.3511 39.2209 72.8272 41.3991C65.3033 43.5773 58.5714 47.8881 53.445 53.8105C48.3186 59.7328 45.0173 67.0132 43.9401 74.7716C42.8629 82.5301 44.0559 90.4344 47.3748 97.5294C50.6938 104.624 55.9966 110.606 62.6425 114.752C69.2884 118.897 76.9927 121.029 84.8243 120.89C92.656 120.751 100.28 118.346 106.774 113.967C113.268 109.587 118.355 103.421 121.419 96.2124L157.339 111.483Z" fill="url(#paint0_radial_26_242)" shape-rendering="crispEdges"/>
<path d="M157.339 111.483C151.325 125.63 141.341 137.733 128.596 146.327C115.851 154.922 100.889 159.641 85.5184 159.915C70.1483 160.188 55.0279 156.004 41.9849 147.868C28.9419 139.732 18.5346 127.992 12.0209 114.068C5.50722 100.143 3.16594 84.6304 5.28008 69.4038C7.39422 54.1773 13.8733 39.8891 23.9341 28.266C33.995 16.6429 47.207 8.18268 61.9732 3.90775C76.7394 -0.367176 92.4278 -0.273755 107.142 4.17672L95.8423 41.5362C88.3449 39.2685 80.3511 39.2209 72.8272 41.3991C65.3033 43.5773 58.5714 47.8881 53.445 53.8105C48.3186 59.7328 45.0173 67.0132 43.9401 74.7716C42.8629 82.5301 44.0559 90.4344 47.3748 97.5294C50.6938 104.624 55.9966 110.606 62.6425 114.752C69.2884 118.897 76.9927 121.029 84.8243 120.89C92.656 120.751 100.28 118.346 106.774 113.967C113.268 109.587 118.355 103.421 121.419 96.2124L157.339 111.483Z" fill="url(#paint1_linear_26_242)" fill-opacity="0.2" shape-rendering="crispEdges"/>
</g>
<defs>
<filter id="filter0_bd_26_242" x="-5.47607" y="-9.2312" width="172.815" height="179.159" filterUnits="userSpaceOnUse" color-interpolation-filters="sRGB">
<feFlood flood-opacity="0" result="BackgroundImageFix"/>
<feGaussianBlur in="BackgroundImage" stdDeviation="5"/>
<feComposite in2="SourceAlpha" operator="in" result="effect1_backgroundBlur_26_242"/>
<feColorMatrix in="SourceAlpha" type="matrix" values="0 0 0 0 0 0 0 0 0 0 0 0 0 0 0 0 0 0 127 0" result="hardAlpha"/>
<feOffset dy="4"/>
<feGaussianBlur stdDeviation="2"/>
<feComposite in2="hardAlpha" operator="out"/>
<feColorMatrix type="matrix" values="0 0 0 0 0.920833 0 0 0 0 1 0 0 0 0 0.983242 0 0 0 0.76 0"/>
<feBlend mode="normal" in2="effect1_backgroundBlur_26_242" result="effect2_dropShadow_26_242"/>
<feBlend mode="normal" in="SourceGraphic" in2="effect2_dropShadow_26_242" result="shape"/>
</filter>
<radialGradient id="paint0_radial_26_242" cx="0" cy="0" r="1" gradientUnits="userSpaceOnUse" gradientTransform="translate(49.4306 53.3936) rotate(49.7998) scale(126.915)">
<stop offset="0.152184" stop-color="#5771F9" stop-opacity="0.41"/>
<stop offset="0.46875" stop-color="#5CFFDD" stop-opacity="0.26"/>
<stop offset="1" stop-color="white"/>
</radialGradient>
<linearGradient id="paint1_linear_26_242" x1="84.1032" y1="0.768799" x2="84.1032" y2="159.927" gradientUnits="userSpaceOnUse">
<stop stop-color="white"/>
<stop offset="1" stop-color="white" stop-opacity="0"/>
</linearGradient>
</defs>
</svg>
