<svg width="83" height="83" viewBox="0 0 83 83" fill="none" xmlns="http://www.w3.org/2000/svg">
<path d="M72.9872 82.7063H9.17839C4.12653 82.7063 0.00732422 78.5832 0.00732422 73.6044V9.73511C0.00732422 4.67847 4.12653 0.555359 9.17839 0.555359H72.9872C78.0391 0.555359 82.1583 4.67847 82.1583 9.73511V73.6044C82.0806 78.5832 77.9614 82.7063 72.9872 82.7063ZM9.17839 4.44508C6.225 4.44508 3.89337 6.77892 3.89337 9.73511V73.6044C3.89337 76.4828 6.225 78.8944 9.17839 78.8944H72.9872C75.8629 78.8944 78.2723 76.5606 78.2723 73.6044V9.73511C78.2723 6.85671 75.9406 4.44508 72.9872 4.44508H9.17839Z" fill="url(#paint0_linear_26_371)"/>
<path d="M30.0078 42.2531L14.6967 26.5386C11.8211 23.6602 11.7433 18.9148 14.6967 16.0364L15.1631 15.5696C18.0387 12.6134 22.7797 12.6134 25.6554 15.4918L40.8887 31.1285L30.0078 42.2531ZM20.4481 17.2033C19.5154 17.2033 18.5828 17.5145 17.8833 18.2924L17.417 18.7592C16.018 20.1595 16.0957 22.4155 17.417 23.8158L29.93 36.7297L35.3705 31.2063L22.9352 18.2146C22.2357 17.5923 21.3807 17.2033 20.4481 17.2033Z" fill="url(#paint1_linear_26_371)"/>
<path d="M59.6969 68.0034C57.8316 68.0034 55.8886 67.3032 54.4896 65.8251L41.9766 53.5336L52.8575 42.4868L65.3706 54.7783C68.3239 57.6567 68.3239 62.4022 65.4483 65.3584L65.0597 65.7473C63.583 67.2254 61.6399 68.0034 59.6969 68.0034ZM47.4947 53.5336L57.2099 63.1023C58.6088 64.5026 60.8627 64.5026 62.2617 63.1023L62.728 62.6356C64.127 61.2353 64.127 58.9792 62.728 57.5789L52.9352 48.0102L47.4947 53.5336Z" fill="url(#paint2_linear_26_371)"/>
<path d="M28.8416 61.7794C27.054 61.7794 25.4219 61.0793 24.1784 59.8346C22.9348 58.5899 22.2354 56.9562 22.2354 55.1669C22.2354 53.3776 22.9348 51.7439 24.1784 50.4992L50.9921 23.5823C53.5569 21.0151 57.7538 21.0151 60.3186 23.5823C62.8834 26.1496 62.8834 30.3505 60.3186 32.9177L33.5826 59.8346C32.3391 61.0793 30.6292 61.7794 28.8416 61.7794ZM55.7331 25.5272C55.0336 25.5272 54.3341 25.7606 53.79 26.3051L26.9763 53.222C26.4323 53.7666 26.1991 54.389 26.1991 55.1669C26.1991 55.9449 26.4323 56.5672 26.9763 57.034C27.5204 57.5785 28.1421 57.8119 28.9194 57.8119C29.6188 57.8119 30.3183 57.5007 30.8624 57.034L57.6761 30.1949C58.7642 29.1057 58.7642 27.3943 57.6761 26.3051C57.132 25.7606 56.4326 25.5272 55.7331 25.5272Z" fill="#2E46AA"/>
<defs>
<linearGradient id="paint0_linear_26_371" x1="0.00732422" y1="41.641" x2="82.1" y2="41.641" gradientUnits="userSpaceOnUse">
<stop stop-color="#42C0D1"/>
<stop offset="1" stop-color="#145FF7"/>
</linearGradient>
<linearGradient id="paint1_linear_26_371" x1="12.5415" y1="27.7787" x2="40.9174" y2="27.7787" gradientUnits="userSpaceOnUse">
<stop stop-color="#42C0D1"/>
<stop offset="1" stop-color="#145FF7"/>
</linearGradient>
<linearGradient id="paint2_linear_26_371" x1="54.7951" y1="67.9878" x2="54.7951" y2="42.4767" gradientUnits="userSpaceOnUse">
<stop stop-color="#2E46AA"/>
<stop offset="1" stop-color="#145FF7"/>
</linearGradient>
</defs>
</svg>
