<svg width="29" height="22" viewBox="0 0 29 22" fill="none" xmlns="http://www.w3.org/2000/svg">
<path d="M3.16701 4.53529L3.16701 3.72569C3.167 2.17504 4.85523 1.21424 6.18841 2.00616L9.97399 4.25481C10.2831 4.4384 10.6359 4.53529 10.9954 4.53529H22.2337C23.3383 4.53529 24.2337 5.43072 24.2337 6.53529V15.046C24.2337 16.1506 23.3383 17.046 22.2337 17.046H5.16701C4.06244 17.046 3.16701 16.1506 3.16701 15.046V4.53529Z" fill="#79A0ED"/>
<g filter="url(#filter0_i_9_633)">
<path d="M5.2843 7.80188L11.276 7.80188" stroke="white" stroke-opacity="0.8" stroke-linecap="round"/>
</g>
<g filter="url(#filter1_i_9_633)">
<path d="M5.2843 9.53455L11.276 9.53455" stroke="white" stroke-opacity="0.8" stroke-linecap="round"/>
</g>
<g filter="url(#filter2_bd_9_633)">
<path d="M26.2897 8.9429C26.2897 6.70977 23.937 5.25945 21.9419 6.26268L1.786 16.3981C1.29939 16.6428 0.992315 17.1409 0.992315 17.6856C0.992315 18.4815 1.63752 19.1267 2.43342 19.1267H23.2897C24.9465 19.1267 26.2897 17.7835 26.2897 16.1267V8.9429Z" fill="#86F1FF" fill-opacity="0.5" shape-rendering="crispEdges"/>
<path d="M26.1397 8.9429C26.1397 6.82143 23.9047 5.44362 22.0093 6.39669L1.85339 16.5321C1.41743 16.7513 1.14231 17.1976 1.14231 17.6856C1.14231 18.3986 1.72036 18.9767 2.43342 18.9767H23.2897C24.8637 18.9767 26.1397 17.7007 26.1397 16.1267V8.9429Z" stroke="white" stroke-width="0.3" shape-rendering="crispEdges"/>
</g>
<defs>
<filter id="filter0_i_9_633" x="4.7843" y="7.30188" width="6.9917" height="1.2" filterUnits="userSpaceOnUse" color-interpolation-filters="sRGB">
<feFlood flood-opacity="0" result="BackgroundImageFix"/>
<feBlend mode="normal" in="SourceGraphic" in2="BackgroundImageFix" result="shape"/>
<feColorMatrix in="SourceAlpha" type="matrix" values="0 0 0 0 0 0 0 0 0 0 0 0 0 0 0 0 0 0 127 0" result="hardAlpha"/>
<feOffset dy="0.2"/>
<feGaussianBlur stdDeviation="0.1"/>
<feComposite in2="hardAlpha" operator="arithmetic" k2="-1" k3="1"/>
<feColorMatrix type="matrix" values="0 0 0 0 0 0 0 0 0 0 0 0 0 0 0 0 0 0 0.25 0"/>
<feBlend mode="normal" in2="shape" result="effect1_innerShadow_9_633"/>
</filter>
<filter id="filter1_i_9_633" x="4.7843" y="9.03455" width="6.9917" height="1.2" filterUnits="userSpaceOnUse" color-interpolation-filters="sRGB">
<feFlood flood-opacity="0" result="BackgroundImageFix"/>
<feBlend mode="normal" in="SourceGraphic" in2="BackgroundImageFix" result="shape"/>
<feColorMatrix in="SourceAlpha" type="matrix" values="0 0 0 0 0 0 0 0 0 0 0 0 0 0 0 0 0 0 127 0" result="hardAlpha"/>
<feOffset dy="0.2"/>
<feGaussianBlur stdDeviation="0.1"/>
<feComposite in2="hardAlpha" operator="arithmetic" k2="-1" k3="1"/>
<feColorMatrix type="matrix" values="0 0 0 0 0 0 0 0 0 0 0 0 0 0 0 0 0 0 0.25 0"/>
<feBlend mode="normal" in2="shape" result="effect1_innerShadow_9_633"/>
</filter>
<filter id="filter2_bd_9_633" x="-1.00769" y="3.93896" width="29.2974" height="17.1877" filterUnits="userSpaceOnUse" color-interpolation-filters="sRGB">
<feFlood flood-opacity="0" result="BackgroundImageFix"/>
<feGaussianBlur in="BackgroundImage" stdDeviation="1"/>
<feComposite in2="SourceAlpha" operator="in" result="effect1_backgroundBlur_9_633"/>
<feColorMatrix in="SourceAlpha" type="matrix" values="0 0 0 0 0 0 0 0 0 0 0 0 0 0 0 0 0 0 127 0" result="hardAlpha"/>
<feOffset dx="1" dy="1"/>
<feGaussianBlur stdDeviation="0.5"/>
<feComposite in2="hardAlpha" operator="out"/>
<feColorMatrix type="matrix" values="0 0 0 0 0 0 0 0 0 1 0 0 0 0 0.76 0 0 0 0.31 0"/>
<feBlend mode="normal" in2="effect1_backgroundBlur_9_633" result="effect2_dropShadow_9_633"/>
<feBlend mode="normal" in="SourceGraphic" in2="effect2_dropShadow_9_633" result="shape"/>
</filter>
</defs>
</svg>
