<svg width="51" height="52" viewBox="0 0 51 52" fill="none" xmlns="http://www.w3.org/2000/svg">
<path d="M45.3074 51.7594H5.69357C2.55728 51.7594 0 49.2 0 46.1095V6.46379C0 3.32497 2.55728 0.765625 5.69357 0.765625H45.3074C48.4436 0.765625 51.0009 3.32497 51.0009 6.46379V46.1095C50.9527 49.2 48.3954 51.7594 45.3074 51.7594ZM5.69357 3.1801C3.86005 3.1801 2.41253 4.62879 2.41253 6.46379V46.1095C2.41253 47.8962 3.86005 49.3932 5.69357 49.3932H45.3074C47.0926 49.3932 48.5884 47.9445 48.5884 46.1095V6.46379C48.5884 4.67708 47.1409 3.1801 45.3074 3.1801H5.69357Z" fill="url(#paint0_linear_33_1092)"/>
<path d="M18.6252 26.648L9.1198 16.8936C7.33453 15.1069 7.28628 12.1612 9.1198 10.3745L9.40931 10.0847C11.1946 8.24974 14.1379 8.24974 15.9231 10.0365L25.3803 19.7426L18.6252 26.648ZM12.6904 11.0988C12.1113 11.0988 11.5323 11.292 11.0981 11.7749L10.8086 12.0646C9.94007 12.9338 9.98832 14.3342 10.8086 15.2034L18.5769 23.2195L21.9545 19.7909L14.2344 11.7266C13.8001 11.3403 13.2694 11.0988 12.6904 11.0988Z" fill="url(#paint1_linear_33_1092)"/>
<path d="M37.0568 42.6327C35.8988 42.6327 34.6925 42.1981 33.824 41.2806L26.0557 33.6508L32.8108 26.7937L40.5791 34.4234C42.4126 36.2102 42.4126 39.1558 40.6274 40.9908L40.3861 41.2323C39.4693 42.1498 38.2631 42.6327 37.0568 42.6327ZM29.4815 33.6508L35.5128 39.5904C36.3813 40.4596 37.7806 40.4596 38.6491 39.5904L38.9386 39.3007C39.8071 38.4315 39.8071 37.0311 38.9386 36.1619L32.859 30.2223L29.4815 33.6508Z" fill="url(#paint2_linear_33_1092)"/>
<path d="M17.9001 38.7698C16.7904 38.7698 15.7771 38.3352 15.0051 37.5626C14.2331 36.79 13.7988 35.7759 13.7988 34.6652C13.7988 33.5546 14.2331 32.5405 15.0051 31.7678L31.6516 15.0597C33.2438 13.4661 35.8494 13.4661 37.4416 15.0597C39.0339 16.6532 39.0339 19.2609 37.4416 20.8544L20.8434 37.5626C20.0714 38.3352 19.0099 38.7698 17.9001 38.7698ZM34.5949 16.2669C34.1606 16.2669 33.7263 16.4118 33.3886 16.7498L16.7421 33.458C16.4044 33.796 16.2596 34.1823 16.2596 34.6652C16.2596 35.1481 16.4044 35.5344 16.7421 35.8242C17.0799 36.1622 17.4659 36.3071 17.9484 36.3071C18.3826 36.3071 18.8169 36.1139 19.1547 35.8242L35.8011 19.1643C36.4766 18.4882 36.4766 17.4259 35.8011 16.7498C35.4634 16.4118 35.0291 16.2669 34.5949 16.2669Z" fill="#2E46AA"/>
<defs>
<linearGradient id="paint0_linear_33_1092" x1="0" y1="26.2688" x2="50.9647" y2="26.2688" gradientUnits="userSpaceOnUse">
<stop stop-color="#42C0D1"/>
<stop offset="1" stop-color="#145FF7"/>
</linearGradient>
<linearGradient id="paint1_linear_33_1092" x1="7.78181" y1="17.6633" x2="25.3981" y2="17.6633" gradientUnits="userSpaceOnUse">
<stop stop-color="#42C0D1"/>
<stop offset="1" stop-color="#145FF7"/>
</linearGradient>
<linearGradient id="paint2_linear_33_1092" x1="34.0136" y1="42.623" x2="34.0136" y2="26.7874" gradientUnits="userSpaceOnUse">
<stop stop-color="#2E46AA"/>
<stop offset="1" stop-color="#145FF7"/>
</linearGradient>
</defs>
</svg>
