<svg width="33" height="33" viewBox="0 0 33 33" fill="none" xmlns="http://www.w3.org/2000/svg">
<path d="M28.6538 32.3037H3.60079C1.6173 32.3037 0 30.6851 0 28.7306V3.6574C0 1.67232 1.6173 0.0537109 3.60079 0.0537109H28.6538C30.6372 0.0537109 32.2545 1.67232 32.2545 3.6574V28.7306C32.224 30.6851 30.6067 32.3037 28.6538 32.3037ZM3.60079 1.5807C2.44121 1.5807 1.52576 2.49689 1.52576 3.6574V28.7306C1.52576 29.8605 2.44121 30.8073 3.60079 30.8073H28.6538C29.7828 30.8073 30.7288 29.8911 30.7288 28.7306V3.6574C30.7288 2.52743 29.8133 1.5807 28.6538 1.5807H3.60079Z" fill="url(#paint0_linear_27_1032)"/>
<path d="M11.7789 16.4224L5.76746 10.2533C4.6384 9.12337 4.60788 7.26045 5.76746 6.13048L5.95055 5.94724C7.07961 4.78673 8.94104 4.78673 10.0701 5.9167L16.0511 12.0552L11.7789 16.4224ZM8.02558 6.58857C7.6594 6.58857 7.29322 6.71073 7.01858 7.01613L6.83549 7.19937C6.28622 7.74908 6.31673 8.63474 6.83549 9.18445L11.7484 14.2541L13.8845 12.0857L9.00207 6.98559C8.72743 6.74127 8.39176 6.58857 8.02558 6.58857Z" fill="url(#paint1_linear_27_1032)"/>
<path d="M23.436 26.5317C22.7036 26.5317 21.9407 26.2568 21.3915 25.6766L16.4785 20.8513L20.7506 16.5146L25.6636 21.3399C26.8232 22.4699 26.8232 24.3328 25.6941 25.4933L25.5415 25.646C24.9617 26.2263 24.1989 26.5317 23.436 26.5317ZM18.6451 20.8513L22.4595 24.6077C23.0088 25.1574 23.8937 25.1574 24.443 24.6077L24.6261 24.4245C25.1753 23.8747 25.1753 22.9891 24.6261 22.4394L20.7812 18.683L18.6451 20.8513Z" fill="url(#paint2_linear_27_1032)"/>
<path d="M11.3204 24.0888C10.6185 24.0888 9.97769 23.8139 9.48944 23.3253C9.0012 22.8367 8.72656 22.1953 8.72656 21.4929C8.72656 20.7905 9.0012 20.1492 9.48944 19.6605L20.0172 9.09375C21.0242 8.08594 22.672 8.08594 23.679 9.09375C24.686 10.1016 24.686 11.7507 23.679 12.7585L13.1818 23.3253C12.6935 23.8139 12.0222 24.0888 11.3204 24.0888ZM21.8786 9.85724C21.604 9.85724 21.3293 9.94886 21.1157 10.1626L10.588 20.7294C10.3744 20.9432 10.2828 21.1875 10.2828 21.4929C10.2828 21.7983 10.3744 22.0426 10.588 22.2259C10.8016 22.4396 11.0457 22.5313 11.3509 22.5313C11.6255 22.5313 11.9001 22.4091 12.1137 22.2259L22.6415 11.6896C23.0687 11.2621 23.0687 10.5902 22.6415 10.1626C22.4279 9.94886 22.1532 9.85724 21.8786 9.85724Z" fill="#2E46AA"/>
<defs>
<linearGradient id="paint0_linear_27_1032" x1="0" y1="16.1827" x2="32.2317" y2="16.1827" gradientUnits="userSpaceOnUse">
<stop stop-color="#42C0D1"/>
<stop offset="1" stop-color="#145FF7"/>
</linearGradient>
<linearGradient id="paint1_linear_27_1032" x1="4.92127" y1="10.7401" x2="16.0624" y2="10.7401" gradientUnits="userSpaceOnUse">
<stop stop-color="#42C0D1"/>
<stop offset="1" stop-color="#145FF7"/>
</linearGradient>
<linearGradient id="paint2_linear_27_1032" x1="21.5114" y1="26.5256" x2="21.5114" y2="16.5107" gradientUnits="userSpaceOnUse">
<stop stop-color="#2E46AA"/>
<stop offset="1" stop-color="#145FF7"/>
</linearGradient>
</defs>
</svg>
