<svg width="22" height="22" viewBox="0 0 22 22" fill="none" xmlns="http://www.w3.org/2000/svg">
<path fill-rule="evenodd" clip-rule="evenodd" d="M19.4139 5.33727L16.7152 2.63854C16.051 1.97431 14.974 1.97431 14.3098 2.63854L10.6285 6.31982C9.9643 6.98405 9.9643 8.06097 10.6285 8.7252L13.3273 11.4239C13.9915 12.0882 15.0684 12.0882 15.7326 11.4239L19.4139 7.74265C20.0781 7.07842 20.0781 6.0015 19.4139 5.33727ZM17.3165 2.03719C16.3202 1.04085 14.7048 1.04085 13.7085 2.03719L10.0272 5.71847C9.03084 6.71481 9.03084 8.3302 10.0272 9.32655L12.7259 12.0253C13.7223 13.0216 15.3376 13.0216 16.334 12.0253L20.0153 8.344C21.0116 7.34766 21.0116 5.73227 20.0153 4.73592L17.3165 2.03719Z" fill="black"/>
<path fill-rule="evenodd" clip-rule="evenodd" d="M12.1246 12.6266L9.42582 9.92791C8.76159 9.26368 7.68467 9.26368 7.02044 9.92791L3.33916 13.6092C2.67493 14.2734 2.67493 15.3503 3.33916 16.0146L6.03789 18.7133C6.70212 19.3775 7.77904 19.3775 8.44327 18.7133L12.1246 15.032C12.7888 14.3678 12.7888 13.2909 12.1246 12.6266ZM10.0272 9.32656C9.03083 8.33022 7.41543 8.33022 6.41909 9.32656L2.73781 13.0078C1.74147 14.0042 1.74147 15.6196 2.73781 16.6159L5.43654 19.3146C6.43288 20.311 8.04827 20.311 9.04462 19.3146L12.7259 15.6334C13.7222 14.637 13.7222 13.0216 12.7259 12.0253L10.0272 9.32656Z" fill="black"/>
<path d="M12.058 7.37082C12.3901 7.0387 12.9286 7.0387 13.2607 7.37082L14.8462 8.95636C15.1783 9.28847 15.1783 9.82694 14.8462 10.1591L10.8597 14.1456C10.5276 14.4777 9.98913 14.4777 9.65701 14.1456L8.07147 12.56C7.73936 12.2279 7.73936 11.6894 8.07147 11.3573L12.058 7.37082Z" fill="black"/>
<path fill-rule="evenodd" clip-rule="evenodd" d="M11.8475 7.16036C12.2959 6.712 13.0228 6.712 13.4711 7.16036L15.0567 8.7459C15.505 9.19425 15.505 9.92118 15.0567 10.3695L11.0702 14.356C10.6218 14.8044 9.89488 14.8044 9.44652 14.356L7.86098 12.7705C7.41263 12.3222 7.41263 11.5952 7.86099 11.1469L11.8475 7.16036ZM13.0502 7.5813C12.8343 7.36543 12.4843 7.36543 12.2684 7.5813L8.28193 11.5678C8.06605 11.7837 8.06605 12.1337 8.28193 12.3496L9.86747 13.9351C10.0833 14.151 10.4333 14.151 10.6492 13.9351L14.6357 9.94859C14.8516 9.73272 14.8516 9.38272 14.6357 9.16684L13.0502 7.5813Z" fill="white"/>
</svg>
