<svg width="578" height="678" viewBox="0 0 578 678" fill="none" xmlns="http://www.w3.org/2000/svg">
<mask id="mask0_26_382" style="mask-type:alpha" maskUnits="userSpaceOnUse" x="56" y="56" width="466" height="566">
<rect x="324.883" y="2.39128" width="295.161" height="609.247" rx="147.58" transform="rotate(31.9406 324.883 2.39128)" fill="#D9D9D9" stroke="white" stroke-width="3"/>
</mask>
<g mask="url(#mask0_26_382)">
<path d="M225.264 -65.2732L659.729 190.545C665.44 193.907 667.344 201.263 663.981 206.974L354.327 732.872C350.964 738.583 343.608 740.487 337.897 737.124L-96.568 481.306L225.264 -65.2732Z" fill="url(#paint0_radial_26_382)"/>
<path d="M225.264 -65.2732L659.729 190.545C665.44 193.907 667.344 201.263 663.981 206.974L354.327 732.872C350.964 738.583 343.608 740.487 337.897 737.124L-96.568 481.306L225.264 -65.2732Z" fill="url(#paint1_linear_26_382)" fill-opacity="0.6"/>
<path d="M225.264 -65.2732L659.729 190.545C665.44 193.907 667.344 201.263 663.981 206.974L354.327 732.872C350.964 738.583 343.608 740.487 337.897 737.124L-96.568 481.306L225.264 -65.2732Z" fill="url(#paint2_linear_26_382)" fill-opacity="0.6"/>
<path d="M225.264 -65.2732L659.729 190.545C665.44 193.907 667.344 201.263 663.981 206.974L354.327 732.872C350.964 738.583 343.608 740.487 337.897 737.124L-96.568 481.306L225.264 -65.2732Z" fill="url(#paint3_linear_26_382)"/>
<path d="M225.264 -65.2732L659.729 190.545C665.44 193.907 667.344 201.263 663.981 206.974L354.327 732.872C350.964 738.583 343.608 740.487 337.897 737.124L-96.568 481.306L225.264 -65.2732Z" fill="url(#paint4_linear_26_382)" fill-opacity="0.7"/>
</g>
<defs>
<radialGradient id="paint0_radial_26_382" cx="0" cy="0" r="1" gradientUnits="userSpaceOnUse" gradientTransform="translate(361.323 212.321) rotate(120.49) scale(597.11 663.046)">
<stop stop-color="#5BBCFD"/>
<stop offset="0.380488" stop-color="#35DCFE"/>
<stop offset="0.551219" stop-color="#31E8EE"/>
<stop offset="0.785366" stop-color="#74FDE0"/>
</radialGradient>
<linearGradient id="paint1_linear_26_382" x1="489.141" y1="503.911" x2="21.5554" y2="238.732" gradientUnits="userSpaceOnUse">
<stop stop-color="white"/>
<stop offset="0.567708" stop-color="white" stop-opacity="0.4375"/>
<stop offset="0.973958" stop-color="white" stop-opacity="0"/>
</linearGradient>
<linearGradient id="paint2_linear_26_382" x1="103.451" y1="141.606" x2="543.601" y2="603.58" gradientUnits="userSpaceOnUse">
<stop stop-color="#5771F9"/>
<stop offset="1" stop-color="#E9ECFF" stop-opacity="0"/>
</linearGradient>
<linearGradient id="paint3_linear_26_382" x1="219.452" y1="-114.585" x2="151.603" y2="379.528" gradientUnits="userSpaceOnUse">
<stop stop-color="#74FDE0" stop-opacity="0.76"/>
<stop offset="1" stop-color="#74FDE0" stop-opacity="0"/>
</linearGradient>
<linearGradient id="paint4_linear_26_382" x1="447.667" y1="65.6801" x2="395.675" y2="570.673" gradientUnits="userSpaceOnUse">
<stop stop-color="#9176E0"/>
<stop offset="0.71875" stop-color="#FD97D4" stop-opacity="0.28125"/>
<stop offset="1" stop-color="#85FFF0" stop-opacity="0"/>
</linearGradient>
</defs>
</svg>
