<svg width="29" height="28" viewBox="0 0 29 28" fill="none" xmlns="http://www.w3.org/2000/svg">
<mask id="mask0_9_668" style="mask-type:alpha" maskUnits="userSpaceOnUse" x="0" y="0" width="29" height="28">
<rect x="0.812683" y="0.0322266" width="27.3166" height="27.3166" rx="13" fill="#D9D9D9"/>
</mask>
<g mask="url(#mask0_9_668)">
<mask id="path-2-inside-1_9_668" fill="white">
<path d="M27.0276 27.4681C27.0276 25.8188 26.8126 24.1857 26.3948 22.662C25.9771 21.1382 25.3648 19.7537 24.5929 18.5875C23.821 17.4213 22.9046 16.4962 21.8961 15.8651C20.8875 15.2339 19.8066 14.9091 18.7149 14.9091C17.6233 14.9091 16.5424 15.2339 15.5338 15.8651C14.5253 16.4962 13.6089 17.4213 12.837 18.5875C12.0651 19.7537 11.4528 21.1382 11.035 22.662C10.6173 24.1857 10.4023 25.8188 10.4023 27.4681L18.7149 27.4681H27.0276Z"/>
</mask>
<path d="M27.0276 27.4681C27.0276 25.8188 26.8126 24.1857 26.3948 22.662C25.9771 21.1382 25.3648 19.7537 24.5929 18.5875C23.821 17.4213 22.9046 16.4962 21.8961 15.8651C20.8875 15.2339 19.8066 14.9091 18.7149 14.9091C17.6233 14.9091 16.5424 15.2339 15.5338 15.8651C14.5253 16.4962 13.6089 17.4213 12.837 18.5875C12.0651 19.7537 11.4528 21.1382 11.035 22.662C10.6173 24.1857 10.4023 25.8188 10.4023 27.4681L18.7149 27.4681H27.0276Z" fill="url(#paint0_linear_9_668)" stroke="white" stroke-width="0.8" mask="url(#path-2-inside-1_9_668)"/>
<circle cx="18.7151" cy="9.76798" r="4.08068" fill="url(#paint1_linear_9_668)" stroke="white" stroke-width="0.4"/>
<g filter="url(#filter0_bd_9_668)">
<mask id="path-4-inside-2_9_668" fill="white">
<path d="M22.9956 27.7532C22.9956 25.8112 22.7424 23.8882 22.2505 22.094C21.7586 20.2999 21.0377 18.6696 20.1288 17.2964C19.2199 15.9232 18.1408 14.8339 16.9533 14.0908C15.7657 13.3476 14.4929 12.9651 13.2076 12.9651C11.9222 12.9651 10.6494 13.3476 9.46183 14.0908C8.27428 14.8339 7.19526 15.9232 6.28635 17.2964C5.37745 18.6696 4.65646 20.2999 4.16457 22.094C3.67267 23.8882 3.41949 25.8112 3.41949 27.7532L13.2076 27.7532H22.9956Z"/>
</mask>
<path d="M22.9956 27.7532C22.9956 25.8112 22.7424 23.8882 22.2505 22.094C21.7586 20.2999 21.0377 18.6696 20.1288 17.2964C19.2199 15.9232 18.1408 14.8339 16.9533 14.0908C15.7657 13.3476 14.4929 12.9651 13.2076 12.9651C11.9222 12.9651 10.6494 13.3476 9.46183 14.0908C8.27428 14.8339 7.19526 15.9232 6.28635 17.2964C5.37745 18.6696 4.65646 20.2999 4.16457 22.094C3.67267 23.8882 3.41949 25.8112 3.41949 27.7532L13.2076 27.7532H22.9956Z" fill="white" fill-opacity="0.6" stroke="white" stroke-width="0.8" mask="url(#path-4-inside-2_9_668)"/>
<circle cx="13.2077" cy="6.91154" r="4.84045" fill="white" fill-opacity="0.6" stroke="white" stroke-width="0.4"/>
</g>
</g>
<defs>
<filter id="filter0_bd_9_668" x="-0.580505" y="-2.12891" width="27.5761" height="33.8821" filterUnits="userSpaceOnUse" color-interpolation-filters="sRGB">
<feFlood flood-opacity="0" result="BackgroundImageFix"/>
<feGaussianBlur in="BackgroundImage" stdDeviation="2"/>
<feComposite in2="SourceAlpha" operator="in" result="effect1_backgroundBlur_9_668"/>
<feColorMatrix in="SourceAlpha" type="matrix" values="0 0 0 0 0 0 0 0 0 0 0 0 0 0 0 0 0 0 127 0" result="hardAlpha"/>
<feOffset dx="1.5" dy="0.6"/>
<feGaussianBlur stdDeviation="0.5"/>
<feComposite in2="hardAlpha" operator="out"/>
<feColorMatrix type="matrix" values="0 0 0 0 0.5 0 0 0 0 0.67 0 0 0 0 1 0 0 0 0.28 0"/>
<feBlend mode="normal" in2="effect1_backgroundBlur_9_668" result="effect2_dropShadow_9_668"/>
<feBlend mode="normal" in="SourceGraphic" in2="effect2_dropShadow_9_668" result="shape"/>
</filter>
<linearGradient id="paint0_linear_9_668" x1="18.7149" y1="14.9091" x2="18.7149" y2="40.0271" gradientUnits="userSpaceOnUse">
<stop stop-color="#5465FF"/>
<stop offset="0.348958" stop-color="#37B9FC" stop-opacity="0.52"/>
<stop offset="1" stop-color="#81C2FF" stop-opacity="0"/>
</linearGradient>
<linearGradient id="paint1_linear_9_668" x1="18.7151" y1="5.4873" x2="18.7151" y2="14.0487" gradientUnits="userSpaceOnUse">
<stop stop-color="#5465FF"/>
<stop offset="0.348958" stop-color="#37B9FC" stop-opacity="0.52"/>
<stop offset="1" stop-color="#81C2FF" stop-opacity="0"/>
</linearGradient>
</defs>
</svg>
