<svg width="33" height="33" viewBox="0 0 33 33" fill="none" xmlns="http://www.w3.org/2000/svg">
<mask id="mask0_26_447" style="mask-type:alpha" maskUnits="userSpaceOnUse" x="0" y="0" width="33" height="33">
<rect x="0.284668" y="0.32489" width="32" height="32" rx="13" fill="#D9D9D9"/>
</mask>
<g mask="url(#mask0_26_447)">
<mask id="path-2-inside-1_26_447" fill="white">
<path d="M30.9943 32.4646C30.9943 30.5326 30.7424 28.6194 30.253 26.8345C29.7637 25.0495 29.0464 23.4276 28.1421 22.0614C27.2379 20.6953 26.1644 19.6116 24.9829 18.8722C23.8015 18.1329 22.5352 17.7523 21.2564 17.7523C19.9776 17.7523 18.7114 18.1329 17.5299 18.8722C16.3484 19.6116 15.275 20.6953 14.3707 22.0614C13.4665 23.4276 12.7492 25.0495 12.2598 26.8345C11.7704 28.6194 11.5186 30.5326 11.5186 32.4646L21.2564 32.4646H30.9943Z"/>
</mask>
<path d="M30.9943 32.4646C30.9943 30.5326 30.7424 28.6194 30.253 26.8345C29.7637 25.0495 29.0464 23.4276 28.1421 22.0614C27.2379 20.6953 26.1644 19.6116 24.9829 18.8722C23.8015 18.1329 22.5352 17.7523 21.2564 17.7523C19.9776 17.7523 18.7114 18.1329 17.5299 18.8722C16.3484 19.6116 15.275 20.6953 14.3707 22.0614C13.4665 23.4276 12.7492 25.0495 12.2598 26.8345C11.7704 28.6194 11.5186 30.5326 11.5186 32.4646L21.2564 32.4646H30.9943Z" fill="url(#paint0_linear_26_447)" stroke="white" stroke-width="0.8" mask="url(#path-2-inside-1_26_447)"/>
<circle cx="21.2563" cy="11.7299" r="4.8146" fill="url(#paint1_linear_26_447)" stroke="white" stroke-width="0.4"/>
<g filter="url(#filter0_bd_26_447)">
<mask id="path-4-inside-2_26_447" fill="white">
<path d="M26.2713 32.7988C26.2713 30.5238 25.9747 28.2711 25.3985 26.1693C24.8223 24.0675 23.9777 22.1578 22.9129 20.5492C21.8482 18.9405 20.5842 17.6645 19.193 16.7939C17.8019 15.9233 16.3109 15.4752 14.8051 15.4752C13.2993 15.4752 11.8083 15.9233 10.4172 16.7939C9.02601 17.6645 7.76199 18.9405 6.69725 20.5492C5.63251 22.1578 4.78791 24.0675 4.21168 26.1693C3.63545 28.2711 3.33887 30.5238 3.33887 32.7988L14.8051 32.7988H26.2713Z"/>
</mask>
<path d="M26.2713 32.7988C26.2713 30.5238 25.9747 28.2711 25.3985 26.1693C24.8223 24.0675 23.9777 22.1578 22.9129 20.5492C21.8482 18.9405 20.5842 17.6645 19.193 16.7939C17.8019 15.9233 16.3109 15.4752 14.8051 15.4752C13.2993 15.4752 11.8083 15.9233 10.4172 16.7939C9.02601 17.6645 7.76199 18.9405 6.69725 20.5492C5.63251 22.1578 4.78791 24.0675 4.21168 26.1693C3.63545 28.2711 3.33887 30.5238 3.33887 32.7988L14.8051 32.7988H26.2713Z" fill="white" fill-opacity="0.6" stroke="white" stroke-width="0.8" mask="url(#path-4-inside-2_26_447)"/>
<circle cx="14.805" cy="8.38383" r="5.70464" fill="white" fill-opacity="0.6" stroke="white" stroke-width="0.4"/>
</g>
</g>
<defs>
<filter id="filter0_bd_26_447" x="-0.661133" y="-1.52081" width="30.9326" height="38.3196" filterUnits="userSpaceOnUse" color-interpolation-filters="sRGB">
<feFlood flood-opacity="0" result="BackgroundImageFix"/>
<feGaussianBlur in="BackgroundImage" stdDeviation="2"/>
<feComposite in2="SourceAlpha" operator="in" result="effect1_backgroundBlur_26_447"/>
<feColorMatrix in="SourceAlpha" type="matrix" values="0 0 0 0 0 0 0 0 0 0 0 0 0 0 0 0 0 0 127 0" result="hardAlpha"/>
<feOffset dx="1.5" dy="0.6"/>
<feGaussianBlur stdDeviation="0.5"/>
<feComposite in2="hardAlpha" operator="out"/>
<feColorMatrix type="matrix" values="0 0 0 0 0.5 0 0 0 0 0.67 0 0 0 0 1 0 0 0 0.28 0"/>
<feBlend mode="normal" in2="effect1_backgroundBlur_26_447" result="effect2_dropShadow_26_447"/>
<feBlend mode="normal" in="SourceGraphic" in2="effect2_dropShadow_26_447" result="shape"/>
</filter>
<linearGradient id="paint0_linear_26_447" x1="21.2564" y1="17.7523" x2="21.2564" y2="47.1769" gradientUnits="userSpaceOnUse">
<stop stop-color="#5465FF"/>
<stop offset="0.348958" stop-color="#37B9FC" stop-opacity="0.52"/>
<stop offset="1" stop-color="#81C2FF" stop-opacity="0"/>
</linearGradient>
<linearGradient id="paint1_linear_26_447" x1="21.2563" y1="6.71527" x2="21.2563" y2="16.7445" gradientUnits="userSpaceOnUse">
<stop stop-color="#5465FF"/>
<stop offset="0.348958" stop-color="#37B9FC" stop-opacity="0.52"/>
<stop offset="1" stop-color="#81C2FF" stop-opacity="0"/>
</linearGradient>
</defs>
</svg>
