<svg width="59" height="60" viewBox="0 0 59 60" fill="none" xmlns="http://www.w3.org/2000/svg">
<mask id="mask0_26_129" style="mask-type:alpha" maskUnits="userSpaceOnUse" x="0" y="0" width="59" height="60">
<rect x="0.043457" y="0.720215" width="58.9164" height="58.9164" rx="29.4582" fill="#D9D9D9"/>
</mask>
<g mask="url(#mask0_26_129)">
<mask id="path-2-inside-1_26_129" fill="white">
<path d="M56.5841 59.894C56.5841 56.3368 56.1203 52.8145 55.2193 49.5281C54.3183 46.2417 52.9977 43.2556 51.3329 40.7403C49.668 38.225 47.6916 36.2298 45.5163 34.8685C43.3411 33.5073 41.0098 32.8066 38.6553 32.8066C36.3009 32.8066 33.9695 33.5073 31.7943 34.8685C29.6191 36.2298 27.6426 38.225 25.9778 40.7403C24.3129 43.2556 22.9923 46.2417 22.0913 49.5281C21.1903 52.8145 20.7266 56.3368 20.7266 59.894L38.6553 59.894H56.5841Z"/>
</mask>
<path d="M56.5841 59.894C56.5841 56.3368 56.1203 52.8145 55.2193 49.5281C54.3183 46.2417 52.9977 43.2556 51.3329 40.7403C49.668 38.225 47.6916 36.2298 45.5163 34.8685C43.3411 33.5073 41.0098 32.8066 38.6553 32.8066C36.3009 32.8066 33.9695 33.5073 31.7943 34.8685C29.6191 36.2298 27.6426 38.225 25.9778 40.7403C24.3129 43.2556 22.9923 46.2417 22.0913 49.5281C21.1903 52.8145 20.7266 56.3368 20.7266 59.894L38.6553 59.894H56.5841Z" fill="url(#paint0_linear_26_129)" stroke="white" stroke-width="1.98087" mask="url(#path-2-inside-1_26_129)"/>
<circle cx="38.6554" cy="21.7184" r="8.73735" fill="url(#paint1_linear_26_129)" stroke="white" stroke-width="0.990435"/>
<g filter="url(#filter0_bd_26_129)">
<mask id="path-4-inside-2_26_129" fill="white">
<path d="M47.8878 60.509C47.8878 56.3205 47.3418 52.173 46.2809 48.3033C45.2199 44.4337 43.6649 40.9176 41.7046 37.9559C39.7443 34.9941 37.417 32.6448 34.8557 31.0419C32.2944 29.439 29.5492 28.614 26.7769 28.614C24.0046 28.614 21.2594 29.439 18.6981 31.0419C16.1368 32.6448 13.8096 34.9941 11.8493 37.9559C9.88893 40.9176 8.33391 44.4337 7.27299 48.3033C6.21206 52.173 5.66602 56.3205 5.66602 60.509L26.7769 60.509H47.8878Z"/>
</mask>
<path d="M47.8878 60.509C47.8878 56.3205 47.3418 52.173 46.2809 48.3033C45.2199 44.4337 43.6649 40.9176 41.7046 37.9559C39.7443 34.9941 37.417 32.6448 34.8557 31.0419C32.2944 29.439 29.5492 28.614 26.7769 28.614C24.0046 28.614 21.2594 29.439 18.6981 31.0419C16.1368 32.6448 13.8096 34.9941 11.8493 37.9559C9.88893 40.9176 8.33391 44.4337 7.27299 48.3033C6.21206 52.173 5.66602 56.3205 5.66602 60.509L26.7769 60.509H47.8878Z" fill="white" fill-opacity="0.6" stroke="white" stroke-width="1.98087" mask="url(#path-4-inside-2_26_129)"/>
<circle cx="26.777" cy="15.5578" r="10.376" fill="white" fill-opacity="0.6" stroke="white" stroke-width="0.990435"/>
</g>
</g>
<defs>
<filter id="filter0_bd_26_129" x="-4.23833" y="-5.21782" width="62.0304" height="75.6312" filterUnits="userSpaceOnUse" color-interpolation-filters="sRGB">
<feFlood flood-opacity="0" result="BackgroundImageFix"/>
<feGaussianBlur in="BackgroundImage" stdDeviation="4.95217"/>
<feComposite in2="SourceAlpha" operator="in" result="effect1_backgroundBlur_26_129"/>
<feColorMatrix in="SourceAlpha" type="matrix" values="0 0 0 0 0 0 0 0 0 0 0 0 0 0 0 0 0 0 127 0" result="hardAlpha"/>
<feOffset dx="3.71413" dy="1.48565"/>
<feGaussianBlur stdDeviation="1.23804"/>
<feComposite in2="hardAlpha" operator="out"/>
<feColorMatrix type="matrix" values="0 0 0 0 0.5 0 0 0 0 0.67 0 0 0 0 1 0 0 0 0.28 0"/>
<feBlend mode="normal" in2="effect1_backgroundBlur_26_129" result="effect2_dropShadow_26_129"/>
<feBlend mode="normal" in="SourceGraphic" in2="effect2_dropShadow_26_129" result="shape"/>
</filter>
<linearGradient id="paint0_linear_26_129" x1="38.6553" y1="32.8066" x2="38.6553" y2="86.9813" gradientUnits="userSpaceOnUse">
<stop stop-color="#5465FF"/>
<stop offset="0.348958" stop-color="#37B9FC" stop-opacity="0.52"/>
<stop offset="1" stop-color="#81C2FF" stop-opacity="0"/>
</linearGradient>
<linearGradient id="paint1_linear_26_129" x1="38.6554" y1="12.4858" x2="38.6554" y2="30.951" gradientUnits="userSpaceOnUse">
<stop stop-color="#5465FF"/>
<stop offset="0.348958" stop-color="#37B9FC" stop-opacity="0.52"/>
<stop offset="1" stop-color="#81C2FF" stop-opacity="0"/>
</linearGradient>
</defs>
</svg>
