<svg width="51" height="50" viewBox="0 0 51 50" fill="none" xmlns="http://www.w3.org/2000/svg">
<mask id="mask0_26_690" style="mask-type:alpha" maskUnits="userSpaceOnUse" x="0" y="0" width="51" height="50">
<rect x="0.900391" y="0.17041" width="49.5436" height="49.5436" rx="20.1271" fill="#D9D9D9"/>
</mask>
<g mask="url(#mask0_26_690)">
<mask id="path-2-inside-1_26_690" fill="white">
<path d="M48.446 49.9304C48.446 46.9391 48.0561 43.9772 47.2984 41.2136C46.5407 38.45 45.4302 35.939 44.0302 33.8239C42.6302 31.7087 40.9682 30.0309 39.139 28.8862C37.3099 27.7415 35.3494 27.1523 33.3695 27.1523C31.3896 27.1523 29.4291 27.7415 27.6 28.8862C25.7708 30.0309 24.1088 31.7087 22.7088 33.8239C21.3088 35.939 20.1983 38.45 19.4406 41.2136C18.6829 43.9772 18.293 46.9391 18.293 49.9304L33.3695 49.9304H48.446Z"/>
</mask>
<path d="M48.446 49.9304C48.446 46.9391 48.0561 43.9772 47.2984 41.2136C46.5407 38.45 45.4302 35.939 44.0302 33.8239C42.6302 31.7087 40.9682 30.0309 39.139 28.8862C37.3099 27.7415 35.3494 27.1523 33.3695 27.1523C31.3896 27.1523 29.4291 27.7415 27.6 28.8862C25.7708 30.0309 24.1088 31.7087 22.7088 33.8239C21.3088 35.939 20.1983 38.45 19.4406 41.2136C18.6829 43.9772 18.293 46.9391 18.293 49.9304L33.3695 49.9304H48.446Z" fill="#ABA8A8" stroke="white" stroke-width="1.23859" mask="url(#path-2-inside-1_26_690)"/>
<circle cx="33.3693" cy="17.8281" r="7.45414" fill="#ABA8A8" stroke="white" stroke-width="0.619295"/>
<g filter="url(#filter0_b_26_690)">
<mask id="path-4-inside-2_26_690" fill="white">
<path d="M41.1338 50.4477C41.1338 46.9255 40.6746 43.4378 39.7825 40.1837C38.8903 36.9297 37.5827 33.9729 35.9342 31.4824C34.2858 28.9918 32.3287 27.0162 30.1749 25.6683C28.0211 24.3205 25.7126 23.6267 23.3813 23.6267C21.0501 23.6267 18.7416 24.3205 16.5878 25.6683C14.434 27.0162 12.4769 28.9918 10.8285 31.4824C9.18001 33.9729 7.87237 36.9297 6.98023 40.1837C6.08809 43.4378 5.62891 46.9255 5.62891 50.4477L23.3813 50.4477H41.1338Z"/>
</mask>
<path d="M41.1338 50.4477C41.1338 46.9255 40.6746 43.4378 39.7825 40.1837C38.8903 36.9297 37.5827 33.9729 35.9342 31.4824C34.2858 28.9918 32.3287 27.0162 30.1749 25.6683C28.0211 24.3205 25.7126 23.6267 23.3813 23.6267C21.0501 23.6267 18.7416 24.3205 16.5878 25.6683C14.434 27.0162 12.4769 28.9918 10.8285 31.4824C9.18001 33.9729 7.87237 36.9297 6.98023 40.1837C6.08809 43.4378 5.62891 46.9255 5.62891 50.4477L23.3813 50.4477H41.1338Z" fill="white" fill-opacity="0.6" stroke="white" stroke-width="1.23859" mask="url(#path-4-inside-2_26_690)"/>
<circle cx="23.382" cy="12.6475" r="8.83213" fill="white" fill-opacity="0.6" stroke="white" stroke-width="0.619295"/>
</g>
</g>
<defs>
<filter id="filter0_b_26_690" x="-0.564041" y="-2.68727" width="47.8908" height="59.3279" filterUnits="userSpaceOnUse" color-interpolation-filters="sRGB">
<feFlood flood-opacity="0" result="BackgroundImageFix"/>
<feGaussianBlur in="BackgroundImage" stdDeviation="3.09647"/>
<feComposite in2="SourceAlpha" operator="in" result="effect1_backgroundBlur_26_690"/>
<feBlend mode="normal" in="SourceGraphic" in2="effect1_backgroundBlur_26_690" result="shape"/>
</filter>
</defs>
</svg>
