<svg width="28" height="16" viewBox="0 0 28 16" fill="none" xmlns="http://www.w3.org/2000/svg">
<g filter="url(#filter0_bd_9_624)">
<path d="M0.0518188 3.64383C0.0518188 1.4107 2.40447 -0.0396237 4.39957 0.96361L24.5555 11.099C25.0421 11.3437 25.3492 11.8418 25.3492 12.3865C25.3492 13.1824 24.704 13.8276 23.9081 13.8276H3.05182C1.39496 13.8276 0.0518188 12.4845 0.0518188 10.8276V3.64383Z" fill="#86F1FF" fill-opacity="0.5" shape-rendering="crispEdges"/>
<path d="M0.201819 3.64383C0.201819 1.52235 2.43684 0.144549 4.33218 1.09762L24.4881 11.233C24.9241 11.4523 25.1992 11.8985 25.1992 12.3865C25.1992 13.0996 24.6211 13.6776 23.9081 13.6776H3.05182C1.47781 13.6776 0.201819 12.4016 0.201819 10.8276V3.64383Z" stroke="white" stroke-width="0.3" shape-rendering="crispEdges"/>
</g>
<defs>
<filter id="filter0_bd_9_624" x="-1.94818" y="-1.36011" width="29.2974" height="17.1877" filterUnits="userSpaceOnUse" color-interpolation-filters="sRGB">
<feFlood flood-opacity="0" result="BackgroundImageFix"/>
<feGaussianBlur in="BackgroundImage" stdDeviation="1"/>
<feComposite in2="SourceAlpha" operator="in" result="effect1_backgroundBlur_9_624"/>
<feColorMatrix in="SourceAlpha" type="matrix" values="0 0 0 0 0 0 0 0 0 0 0 0 0 0 0 0 0 0 127 0" result="hardAlpha"/>
<feOffset dx="1" dy="1"/>
<feGaussianBlur stdDeviation="0.5"/>
<feComposite in2="hardAlpha" operator="out"/>
<feColorMatrix type="matrix" values="0 0 0 0 0 0 0 0 0 1 0 0 0 0 0.76 0 0 0 0.31 0"/>
<feBlend mode="normal" in2="effect1_backgroundBlur_9_624" result="effect2_dropShadow_9_624"/>
<feBlend mode="normal" in="SourceGraphic" in2="effect2_dropShadow_9_624" result="shape"/>
</filter>
</defs>
</svg>
