<svg width="27" height="25" viewBox="0 0 27 25" fill="none" xmlns="http://www.w3.org/2000/svg">
<path d="M19.0086 24.367C17.1802 24.5479 15.2077 24.05 13.6931 22.7368L0.235715 11.9018L9.83021 0.0184082L23.2876 10.8534C26.4616 13.3885 26.9218 18.0401 24.3897 21.2166L24.0465 21.6356C22.7423 23.2276 20.9132 24.1786 19.0086 24.367ZM5.64473 11.3667L16.0955 19.8041C17.6026 21.041 19.8119 20.8225 21.0474 19.3142L21.4592 18.8115C22.6947 17.3032 22.476 15.0918 20.9689 13.8549L10.442 5.42501L5.64473 11.3667Z" fill="url(#paint0_linear_26_244)"/>
<path d="M19.0086 24.367C17.1802 24.5479 15.2077 24.05 13.6931 22.7368L0.235715 11.9018L9.83021 0.0184082L23.2876 10.8534C26.4616 13.3885 26.9218 18.0401 24.3897 21.2166L24.0465 21.6356C22.7423 23.2276 20.9132 24.1786 19.0086 24.367ZM5.64473 11.3667L16.0955 19.8041C17.6026 21.041 19.8119 20.8225 21.0474 19.3142L21.4592 18.8115C22.6947 17.3032 22.476 15.0918 20.9689 13.8549L10.442 5.42501L5.64473 11.3667Z" fill="white" fill-opacity="0.36"/>
<defs>
<linearGradient id="paint0_linear_26_244" x1="14.2022" y1="24.8271" x2="11.7285" y2="-0.179384" gradientUnits="userSpaceOnUse">
<stop stop-color="#2E46AA"/>
<stop offset="1" stop-color="#145FF7"/>
</linearGradient>
</defs>
</svg>
