<svg width="38" height="43" viewBox="0 0 38 43" fill="none" xmlns="http://www.w3.org/2000/svg">
<path d="M7.99451 42.2582C6.2423 42.4316 4.57456 41.9035 3.23493 40.804C1.8953 39.7045 1.05124 38.171 0.877742 36.4171C0.704243 34.6632 1.23148 32.994 2.32972 31.6534L26.0029 2.66897C28.268 -0.0961568 32.3819 -0.503116 35.1449 1.76462C37.9079 4.03235 38.3153 8.15014 36.0501 10.9153L12.4531 39.8921C11.3549 41.2328 9.74673 42.0849 7.99451 42.2582ZM30.8387 4.11564C30.1531 4.18347 29.49 4.48006 29.0095 5.0666L5.33634 34.051C4.85586 34.6375 4.68765 35.2702 4.76309 36.0327C4.83852 36.7953 5.12742 37.3827 5.70596 37.7875C6.29205 38.2685 6.92415 38.437 7.68598 38.3617C8.37163 38.2938 9.02711 37.921 9.51513 37.4107L33.1959 8.50256C34.1568 7.32948 33.9909 5.65186 32.8187 4.68979C32.2326 4.20875 31.5243 4.04782 30.8387 4.11564Z" fill="#2E46AA"/>
<path d="M7.99451 42.2582C6.2423 42.4316 4.57456 41.9035 3.23493 40.804C1.8953 39.7045 1.05124 38.171 0.877742 36.4171C0.704243 34.6632 1.23148 32.994 2.32972 31.6534L26.0029 2.66897C28.268 -0.0961568 32.3819 -0.503116 35.1449 1.76462C37.9079 4.03235 38.3153 8.15014 36.0501 10.9153L12.4531 39.8921C11.3549 41.2328 9.74673 42.0849 7.99451 42.2582ZM30.8387 4.11564C30.1531 4.18347 29.49 4.48006 29.0095 5.0666L5.33634 34.051C4.85586 34.6375 4.68765 35.2702 4.76309 36.0327C4.83852 36.7953 5.12742 37.3827 5.70596 37.7875C6.29205 38.2685 6.92415 38.437 7.68598 38.3617C8.37163 38.2938 9.02711 37.921 9.51513 37.4107L33.1959 8.50256C34.1568 7.32948 33.9909 5.65186 32.8187 4.68979C32.2326 4.20875 31.5243 4.04782 30.8387 4.11564Z" fill="white" fill-opacity="0.35"/>
</svg>
