<svg width="26" height="25" viewBox="0 0 26 25" fill="none" xmlns="http://www.w3.org/2000/svg">
<path d="M18.843 24.367C17.0146 24.5479 15.0422 24.05 13.5276 22.7368L0.0701874 11.9018L9.66468 0.0184082L23.122 10.8534C26.2961 13.3885 26.7563 18.0401 24.2241 21.2166L23.8809 21.6356C22.5768 23.2276 20.7476 24.1786 18.843 24.367ZM5.4792 11.3667L15.9299 19.8041C17.437 21.041 19.6463 20.8225 20.8819 19.3142L21.2937 18.8115C22.5292 17.3032 22.3105 15.0918 20.8034 13.8549L10.2764 5.42501L5.4792 11.3667Z" fill="url(#paint0_linear_26_123)"/>
<path d="M18.843 24.367C17.0146 24.5479 15.0422 24.05 13.5276 22.7368L0.0701874 11.9018L9.66468 0.0184082L23.122 10.8534C26.2961 13.3885 26.7563 18.0401 24.2241 21.2166L23.8809 21.6356C22.5768 23.2276 20.7476 24.1786 18.843 24.367ZM5.4792 11.3667L15.9299 19.8041C17.437 21.041 19.6463 20.8225 20.8819 19.3142L21.2937 18.8115C22.5292 17.3032 22.3105 15.0918 20.8034 13.8549L10.2764 5.42501L5.4792 11.3667Z" fill="white" fill-opacity="0.36"/>
<defs>
<linearGradient id="paint0_linear_26_123" x1="14.0367" y1="24.8271" x2="11.5629" y2="-0.179384" gradientUnits="userSpaceOnUse">
<stop stop-color="#2E46AA"/>
<stop offset="1" stop-color="#145FF7"/>
</linearGradient>
</defs>
</svg>
