<svg width="29" height="29" viewBox="0 0 29 29" fill="none" xmlns="http://www.w3.org/2000/svg">
<path d="M19.4097 28.0052L2.87788 14.0862C-0.220011 11.5436 -0.756342 6.89958 1.85952 3.79175L2.27136 3.289C4.80349 0.112455 9.45067 -0.347257 12.5486 2.19535L28.9967 16.0456L19.4097 28.0052ZM7.61023 4.3779C6.69603 4.46834 5.812 4.86379 5.20179 5.69417L4.78995 6.19692C3.55443 7.70517 3.84937 9.90904 5.28027 11.1535L18.798 22.5986L23.5952 16.6569L10.1462 5.12806C9.40016 4.58584 8.52443 4.28747 7.61023 4.3779Z" fill="url(#paint0_linear_26_243)"/>
<path d="M19.4097 28.0052L2.87788 14.0862C-0.220011 11.5436 -0.756342 6.89958 1.85952 3.79175L2.27136 3.289C4.80349 0.112455 9.45067 -0.347257 12.5486 2.19535L28.9967 16.0456L19.4097 28.0052ZM7.61023 4.3779C6.69603 4.46834 5.812 4.86379 5.20179 5.69417L4.78995 6.19692C3.55443 7.70517 3.84937 9.90904 5.28027 11.1535L18.798 22.5986L23.5952 16.6569L10.1462 5.12806C9.40016 4.58584 8.52443 4.28747 7.61023 4.3779Z" fill="white" fill-opacity="0.36"/>
<defs>
<linearGradient id="paint0_linear_26_243" x1="0.885556" y1="15.5107" x2="28.7001" y2="12.7592" gradientUnits="userSpaceOnUse">
<stop stop-color="#42C0D1"/>
<stop offset="1" stop-color="#145FF7"/>
</linearGradient>
</defs>
</svg>
