<svg width="37" height="43" viewBox="0 0 37 43" fill="none" xmlns="http://www.w3.org/2000/svg">
<path d="M7.16004 42.2582C5.40782 42.4316 3.74008 41.9035 2.40046 40.804C1.06083 39.7045 0.216767 38.171 0.0432689 36.4171C-0.13023 34.6632 0.397009 32.994 1.49525 31.6534L25.1685 2.66897C27.4336 -0.0961568 31.5475 -0.503116 34.3105 1.76462C37.0734 4.03235 37.4808 8.15014 35.2157 10.9153L11.6186 39.8921C10.5204 41.2328 8.91225 42.0849 7.16004 42.2582ZM30.0042 4.11564C29.3186 4.18347 28.6556 4.48006 28.1751 5.0666L4.50186 34.051C4.02139 34.6375 3.85318 35.2702 3.92862 36.0327C4.00405 36.7953 4.29295 37.3827 4.87149 37.7875C5.45758 38.2685 6.08968 38.437 6.85151 38.3617C7.53716 38.2938 8.19263 37.921 8.68066 37.4107L32.3614 8.50256C33.3224 7.32948 33.1564 5.65186 31.9842 4.68979C31.3982 4.20875 30.6899 4.04782 30.0042 4.11564Z" fill="#2E46AA"/>
<path d="M7.16004 42.2582C5.40782 42.4316 3.74008 41.9035 2.40046 40.804C1.06083 39.7045 0.216767 38.171 0.0432689 36.4171C-0.13023 34.6632 0.397009 32.994 1.49525 31.6534L25.1685 2.66897C27.4336 -0.0961568 31.5475 -0.503116 34.3105 1.76462C37.0734 4.03235 37.4808 8.15014 35.2157 10.9153L11.6186 39.8921C10.5204 41.2328 8.91225 42.0849 7.16004 42.2582ZM30.0042 4.11564C29.3186 4.18347 28.6556 4.48006 28.1751 5.0666L4.50186 34.051C4.02139 34.6375 3.85318 35.2702 3.92862 36.0327C4.00405 36.7953 4.29295 37.3827 4.87149 37.7875C5.45758 38.2685 6.08968 38.437 6.85151 38.3617C7.53716 38.2938 8.19263 37.921 8.68066 37.4107L32.3614 8.50256C33.3224 7.32948 33.1564 5.65186 31.9842 4.68979C31.3982 4.20875 30.6899 4.04782 30.0042 4.11564Z" fill="white" fill-opacity="0.35"/>
</svg>
