<svg width="29" height="29" viewBox="0 0 29 29" fill="none" xmlns="http://www.w3.org/2000/svg">
<path d="M19.2442 28.0052L2.71235 14.0862C-0.385538 11.5436 -0.921869 6.89958 1.69399 3.79175L2.10583 3.289C4.63796 0.112455 9.28514 -0.347257 12.383 2.19535L28.8312 16.0456L19.2442 28.0052ZM7.4447 4.3779C6.5305 4.46834 5.64648 4.86379 5.03626 5.69417L4.62442 6.19692C3.3889 7.70517 3.68385 9.90904 5.11474 11.1535L18.6325 22.5986L23.4297 16.6569L9.98063 5.12806C9.23463 4.58584 8.3589 4.28747 7.4447 4.3779Z" fill="url(#paint0_linear_26_122)"/>
<path d="M19.2442 28.0052L2.71235 14.0862C-0.385538 11.5436 -0.921869 6.89958 1.69399 3.79175L2.10583 3.289C4.63796 0.112455 9.28514 -0.347257 12.383 2.19535L28.8312 16.0456L19.2442 28.0052ZM7.4447 4.3779C6.5305 4.46834 5.64648 4.86379 5.03626 5.69417L4.62442 6.19692C3.3889 7.70517 3.68385 9.90904 5.11474 11.1535L18.6325 22.5986L23.4297 16.6569L9.98063 5.12806C9.23463 4.58584 8.3589 4.28747 7.4447 4.3779Z" fill="white" fill-opacity="0.36"/>
<defs>
<linearGradient id="paint0_linear_26_122" x1="0.720029" y1="15.5107" x2="28.5345" y2="12.7592" gradientUnits="userSpaceOnUse">
<stop stop-color="#42C0D1"/>
<stop offset="1" stop-color="#145FF7"/>
</linearGradient>
</defs>
</svg>
